<?xml version="1.0" standalone="no"?>
<!DOCTYPE svg PUBLIC "-//W3C//DTD SVG 1.1//EN" "http://www.w3.org/Graphics/SVG/1.1/DTD/svg11.dtd">
<svg xmlns="http://www.w3.org/2000/svg">
<metadata>Copyright (C) 2024 by original authors @ fontello.com</metadata>
<defs>
<font id="fontello" horiz-adv-x="1000" >
<font-face font-family="fontello" font-weight="400" font-stretch="normal" units-per-em="1000" ascent="850" descent="-150" />
<missing-glyph horiz-adv-x="1000" />
<glyph glyph-name="icon-1arrow-down" unicode="&#xe800;" d="M813 495c0-8 0-15 0-23-3-8-7-16-12-24-89-91-178-182-267-274-7-5-15-9-23-11-7 0-15 0-22 0-8 2-16 6-23 11-89 92-178 183-267 274-5 8-9 16-11 24 0 8 0 15 0 23 9 32 30 46 63 42 7-2 13-4 18-8 77-78 154-156 231-235 77 79 154 157 231 235 26 14 49 11 70-10 5-8 9-16 12-24z" horiz-adv-x="1000" />

<glyph glyph-name="icon-1arrow-top" unicode="&#xe801;" d="M188 205c0 8 0 15 0 23 2 8 6 16 11 24 89 91 178 182 267 274 7 5 15 9 23 12 7 0 15 0 22 0 8-3 16-7 23-12 89-92 178-183 267-274 5-8 9-16 12-24 0-8 0-15 0-23-10-32-31-46-64-42-6 2-13 4-18 8-77 78-154 156-231 235-77-79-154-157-231-235-26-14-49-10-70 10-5 8-9 16-11 24z" horiz-adv-x="1000" />

<glyph glyph-name="icon-3arrow-down" unicode="&#xe802;" d="M182 550c8 0 17-2 24-6 98-101 196-201 294-302 96 101 193 200 290 300 23 13 42 8 57-15 5-14 4-27-2-39-108-112-216-222-325-332-13-8-26-8-40 0-109 112-217 224-326 336-10 29-1 49 28 58z" horiz-adv-x="1000" />

<glyph glyph-name="icon-arrow-right" unicode="&#xe803;" d="M300 32c0 8 2 17 6 24 101 98 201 196 302 294-100 96-200 193-300 290-12 23-7 42 15 57 14 5 27 4 39-2 112-108 223-216 332-325 8-13 8-26 0-40-112-109-224-217-336-326-29-10-49-1-58 28z" horiz-adv-x="1000" />

<glyph glyph-name="icon-arrow-top-fill" unicode="&#xe804;" d="M158-111c0 94 0 500 0 594 110 111 220 222 331 332 7 5 15 5 22 0 111-110 221-221 332-332 0-94 0-499 0-592-7-10-15-12-26-6-105 105-211 211-317 316-106-105-212-211-317-316-10-6-18-4-25 4z" horiz-adv-x="1000" />

<glyph glyph-name="icon-calendar" unicode="&#xe805;" d="M755 750c0 20 0 40 0 65-5 15-15 30-30 35-30 10-55 0-65-30 0-20 0-45 0-65-100 0-200 0-300 0 0 20 0 45 0 65-20 20-40 30-65 30-20-5-30-15-40-30 0-25-5-45-5-70-110-5-175-65-200-170 0-185 0-375 0-560 20-100 80-155 180-170 180 0 355 0 535 0 100 15 160 70 180 170 0 185 0 375 0 560-15 105-85 160-190 170z m95-710c-10-45-35-75-80-85-180 0-355 0-535 0-45 10-70 40-80 85 0 105 0 205 0 310 235 0 465 0 700 0 0-105-5-205-5-310z m-695 410c0 35 0 75 0 110 10 55 45 85 95 85 0-20 0-40 0-60 20-35 45-45 80-30 10 10 20 15 20 30 0 20 0 45 0 65 100 0 200 0 300 0 0-25 0-50 5-70 20-30 45-40 75-25 15 5 20 20 25 30 0 20 0 40 0 60 55-5 85-30 95-85 0-35 0-75 0-110-230 0-465 0-695 0z" horiz-adv-x="1000" />

<glyph glyph-name="icon-equal" unicode="&#xe806;" d="M200 600c-41 0-75-34-75-75 0-41 34-75 75-75h600c41 0 75 34 75 75 0 41-34 75-75 75h-600z m0-350c-41 0-75-34-75-75 0-41 34-75 75-75h600c41 0 75 34 75 75 0 41-34 75-75 75h-600z" horiz-adv-x="1000" />

<glyph glyph-name="icon-error" unicode="&#xe807;" d="M910 640c-115 150-265 220-455 210-35-5-70-10-100-20-170-55-280-165-335-335-50-180-15-340 105-480 140-145 305-195 505-150 155 45 265 140 330 285 65 170 50 335-50 490z m-395-600c-35-5-65 10-75 50-5 40 15 65 50 75 35 0 55-15 65-50 10-35-5-60-40-75z m45 300c-15-40-45-55-85-45-20 10-30 25-35 45 0 90 0 185 0 275 5 20 20 35 40 45 25 5 50-5 65-25 5-10 10-15 10-25 5-90 5-180 5-270z" horiz-adv-x="1000" />

<glyph glyph-name="icon-home" unicode="&#xe808;" d="M500 738c-38 0-75-10-108-30l-208-126c-31-18-56-45-74-76-17-31-27-66-27-102v-262c0-56 22-109 61-148 39-39 92-61 148-61h416c56 0 109 22 148 61 39 39 61 92 61 148v262c0 36-10 71-27 102-18 31-43 58-74 76l-208 126c-33 20-70 30-108 30z m-65-101c20 12 42 18 65 18 23 0 45-6 65-18l208-126c19-11 34-27 44-46 11-18 16-40 16-61v-262c0-33-13-65-36-89-24-23-55-36-89-36h-41v125c0 44-18 86-49 118-31 31-74 48-118 48-44 0-87-17-118-48-31-32-49-74-49-118v-125h-41c-33 0-65 13-89 36-23 24-36 56-36 89v262c0 21 5 43 16 61 10 19 26 35 44 46l208 126z m124-436c16-16 24-37 24-59v-125h-166v125c0 22 8 43 24 59 16 15 37 24 59 24 22 0 43-9 59-24z" horiz-adv-x="1000" />

<glyph glyph-name="icon-invisible" unicode="&#xe809;" d="M490 515l145-150v10c0 80-60 140-135 140h-10z m10 95c125 0 225-105 225-235 0-30-5-60-15-85l135-140c70 60 125 135 155 225-80 210-275 355-500 355-65 0-125-10-180-35l100-100c25 10 50 15 80 15z m-455 130l105-110 20-20c-75-60-135-140-170-235 80-210 275-355 500-355 70 0 140 15 200 40l20-20 130-140 60 60-805 840-60-60z m250-260l70-75c0-10-5-20-5-30 0-80 60-140 135-140 10 0 20 0 30 5l70-75c-30-15-65-25-100-25-125 0-225 105-225 235 5 35 10 70 25 105z" horiz-adv-x="1000" />

<glyph glyph-name="icon-list" unicode="&#xe80a;" d="M-1 644c0 11 0 22 0 33 13 38 40 54 80 50 44-13 61-42 52-87-15-37-42-52-81-46-26 8-43 25-51 50z m1000 35c0-10 0-19 0-29-7-21-21-33-43-36-227-2-454-2-682 0-35 9-49 31-42 67 6 17 18 28 35 32 231 2 463 2 695 0 18-5 30-17 37-34z m-1000-344c0 11 0 21 0 32 12 36 37 53 76 51 47-12 65-41 56-88-16-37-44-52-83-44-26 7-42 24-49 49z m1000 30c0-9 0-19 0-28-6-19-19-31-39-36-230-1-460-1-689 0-34 11-46 33-39 68 8 17 21 27 39 32 229 1 459 1 689 0 20-5 33-17 39-36z m-1000-340c0 11 0 22 0 33 19 47 52 61 100 44 31-21 42-50 30-87-16-32-42-45-77-40-27 7-45 24-53 50z m1000 27c0-10 0-19 0-29-7-17-19-29-37-34-232-2-464-2-695 0-33 13-44 37-33 71 9 16 22 26 40 28 228 2 455 2 682 0 22-3 36-15 43-36z" horiz-adv-x="1000" />

<glyph glyph-name="icon-log-out" unicode="&#xe80b;" d="M292 767c-33 0-65-13-89-37-23-23-36-55-36-88v-584c0-33 13-65 36-88 24-24 56-37 89-37h416c34 0 65 13 89 37 23 23 36 55 36 88v42c0 23-18 42-41 42-23 0-42-19-42-42v-42c0-11-4-21-12-29-8-8-19-12-30-12h-416c-11 0-22 4-30 12-8 8-12 18-12 29v584c0 11 4 21 12 29 8 8 19 12 30 12h416c11 0 22-4 30-12 8-8 12-18 12-29v-42c0-23 19-42 42-42 23 0 41 19 41 42v42c0 33-13 65-36 88-24 24-55 37-89 37h-416z m404-262c-16 16-42 16-59 0-16-17-16-43 0-59l54-54h-191c-23 0-42-19-42-42 0-23 19-42 42-42h191l-54-53c-16-17-16-43 0-59 17-17 43-17 59 0l125 125c16 16 16 42 0 59l-125 125z" horiz-adv-x="1000" />

<glyph glyph-name="icon-negative-fill" unicode="&#xe80c;" d="M963 544c-82 181-225 281-419 306-31 0-56 0-88 0-50-6-100-19-150-37-181-82-281-225-306-419 0-31 0-56 0-88 6-50 19-106 38-150 81-181 225-281 418-306 32 0 57 0 88 0 50 6 106 19 150 37 181 88 281 226 306 419 0 32 0 57 0 88-6 50-19 106-37 150z m-163-263c-200 0-400 0-600 0-25 0-50 25-50 50 0 25 25 50 50 50 200 0 400 0 600 0 25 0 50-25 50-50 0-25-25-50-50-50z" horiz-adv-x="1000" />

<glyph glyph-name="icon-negative-outline" unicode="&#xe80d;" d="M913 631c-113 157-269 232-463 219-62-6-119-25-175-50-144-75-231-194-269-356-31-194 25-356 175-488 150-112 313-137 494-81 150 62 250 169 300 319 44 162 25 306-62 437z m-50-425c-69-156-194-237-363-250-175 6-294 94-362 250-57 169-25 313 93 432 75 68 163 100 263 106 131-6 237-56 312-156 88-119 107-244 57-382z m-169 200c-131 0-256 0-388 0-18-6-31-18-37-37-6-38 6-56 37-69 132 0 257 0 388 0 19 6 31 19 37 38 7 31-6 56-37 68z" horiz-adv-x="1000" />

<glyph glyph-name="icon-search" unicode="&#xe80e;" d="M945 105c-60 50-125 90-190 130 10 15 15 25 20 40 60 140 45 280-40 405-90 125-215 180-370 170-65-5-125-30-180-65-140-100-200-230-185-405 25-140 100-245 225-310 130-60 260-55 385 20 40-65 80-130 130-190 25-25 55-45 90-50 65-10 115 15 150 75 35 70 20 130-35 180z m-300 240c-55-110-140-165-265-155-90 15-155 60-195 135-45 100-35 190 30 280 45 55 105 85 175 95 105 5 190-40 245-130 30-75 35-145 10-225z" horiz-adv-x="1000" />

<glyph glyph-name="icon-user" unicode="&#xe80f;" d="M500 725c-55 0-108-22-147-61-39-39-61-92-61-147 0-56 22-109 61-148 2-2 5-5 8-8-36-16-68-39-97-67-62-62-97-147-97-236v-41c0-23 18-42 41-42 23 0 42 19 42 42v41c0 67 26 130 73 177 47 47 111 73 177 73 66 0 130-26 177-73 47-47 73-110 73-177v-41c0-23 19-42 42-42 23 0 41 19 41 42v41c0 89-35 174-97 236-29 28-61 51-97 67 3 3 6 6 8 8 39 39 61 92 61 148 0 55-22 108-61 147-39 39-92 61-147 61z m-88-120c23 24 55 37 88 37 33 0 65-13 88-37 24-23 37-55 37-88 0-33-13-65-37-89-23-23-55-36-88-36-33 0-65 13-88 36-24 24-37 56-37 89 0 33 13 65 37 88z" horiz-adv-x="1000" />

<glyph glyph-name="icon-pen" unicode="&#xe810;" d="M938 588c-88 156-219 243-394 262-31 0-63 0-88 0-68-6-137-25-193-62-157-88-244-219-263-394 0-31 0-63 0-88 6-68 25-131 63-193 87-151 218-238 393-263 32 0 63 0 88 0 69 6 131 25 194 62 150 88 237 219 262 394 0 32 0 63 0 88-6 69-25 137-62 194z m-525-457c-13-6-25-12-44-18-31-7-69-19-100-32-13-6-19-6-31-6-13 6-19 19-13 31 13 32 19 69 31 100 7 19 13 32 19 50 13 19 25 32 38 44 75 75 150 150 225 225 43-44 93-94 137-137-87-88-175-175-262-257z m350 350c-19-25-44-43-63-62-44 44-94 87-137 131 18 19 37 38 56 63 6 6 19 12 25 12 19 0 37-6 56-12 19-19 38-38 56-57 19-25 19-50 7-75z" horiz-adv-x="1000" />

<glyph glyph-name="icon-users" unicode="&#xe811;" d="M415 305c65-30 125-30 185 10 60 55 80 120 55 200-35 70-90 105-170 105-65-10-115-45-140-105-30-85-5-155 70-210z m75 245c65 0 105-35 110-100-5-60-40-95-100-100-60 10-95 40-100 100 5 55 35 90 90 100z m-270-290c65 30 90 85 80 155-25 70-70 105-150 105-30-5-60-20-85-45-40-50-45-105-10-165 40-55 95-70 165-50z m-115 145c10 25 30 40 55 45 45 0 65-25 70-65-5-40-25-60-65-65-50 5-70 35-60 85z m730-155c80 5 125 50 135 135-10 90-60 135-150 135-15-5-30-10-45-15-55-35-80-85-70-150 15-65 60-100 130-105z m-10 205c35 0 60-20 70-55 5-40-10-65-50-75-45-5-70 15-80 55 0 40 20 65 60 75z m-245-230c-55 0-105 0-160 0-80-15-130-65-150-145-5-20-5-35 10-45 25-10 40-5 55 15 10 55 40 95 95 105 45 0 95 0 140 0 60-15 90-55 100-115 5-10 10-15 20-20 25-5 40 5 45 35-15 95-65 150-155 170z m-350-25c-20 0-45 5-65 5-85 10-140-25-165-105 0-10 0-20 0-30 0-5 5-10 10-15 20-15 35-10 50 5 5 15 10 30 15 45 10 20 25 30 50 30 30 0 60 0 90 0 5 0 15-5 20-5 15 0 25 0 35 15 10 30-5 50-40 55z m740-40c-40 40-85 55-135 45-20 0-45 0-65-5-15 0-30-10-35-20-5-25 0-40 25-50 10 0 20 0 35 5 15 0 30 0 45 0 60 10 95-15 105-75 5-5 10-10 15-15 20-5 35 0 45 20 0 10 0 20 0 30-10 25-20 45-35 65z" horiz-adv-x="1000" />

<glyph glyph-name="icon-verify" unicode="&#xe812;" d="M975 410c-25 30-55 55-90 80-10 10-15 25-15 35 10 40 10 85 5 125-10 45-35 70-85 70-35 0-75 0-110-5-15 0-30 5-40 20-25 35-55 65-90 95-15 15-40 20-65 20-10-5-20-10-30-15-35-30-65-60-95-100-10-10-25-15-40-20-40 10-80 10-125 5-45-5-70-35-70-80 0-35 0-75 5-110 0-15-5-25-15-35-35-25-65-50-90-80-15-20-25-40-25-65 0-25 10-45 25-60 25-30 55-55 90-80 10-10 15-25 15-35-5-40-10-80-5-120 5-45 30-70 75-75 40-5 80 0 120 5 15 0 25-5 35-15 25-35 50-65 80-90 40-35 80-35 120 0 30 25 60 60 80 90 10 10 25 15 35 15 40-5 80-10 120-5 45 5 70 30 75 75 5 40 0 80-5 120 0 15 5 25 15 35 35 25 65 50 90 80 15 20 25 40 25 60 10 25 0 45-15 60z m-295-20c-60-60-120-120-185-180-15-5-30-5-45 5-30 30-60 60-90 95-15 20-10 40 10 55 20 10 35 10 50-5l55-55 145 145c5 0 10 5 10 5 30 5 50-10 55-40 0-10 0-15-5-25z" horiz-adv-x="1000" />

<glyph glyph-name="icon-visibility" unicode="&#xe813;" d="M500 517c-29 1-57-6-81-21-24-15-43-36-55-62-11-26-15-55-10-83 5-28 18-53 37-74 20-20 45-34 73-40 28-6 56-4 83 7 26 10 49 28 64 52 16 23 25 51 25 79 0 37-13 73-39 100-26 26-61 42-97 42z m0 213c-109-1-215-36-305-99-89-64-157-153-194-256 37-103 105-192 194-255 90-63 196-98 306-99 109 1 216 36 305 99 89 63 157 152 194 255-37 103-105 193-194 256-90 63-196 98-306 99z m0-591c-61 2-119 28-161 72-42 44-66 103-66 164 0 62 24 120 66 165 42 44 100 70 161 72 62-2 119-28 162-72 42-45 66-103 66-165 0-61-24-120-66-164-43-44-100-70-162-72z" horiz-adv-x="1000" />

<glyph glyph-name="icon-link" unicode="&#xe814;" d="M573 851c124 0 248 0 371 0 30-10 48-30 55-61 0-118 0-236 0-355-12-37-36-48-72-32-44 44-88 88-132 132-99-100-199-199-298-298-14-14-31-25-49-33-28-12-53-8-76 11-38 36-41 75-9 116 6 8 12 15 18 22 99 99 198 199 298 298-44 43-87 86-130 130-15 31-7 55 24 70z m192-1000c-220 0-439 0-659 0-55 11-91 43-107 98 0 227 0 454 0 681 16 55 52 87 107 97 88 1 175 1 262 0 42-41 83-82 123-124-122-2-245-3-367-2 0-208 0-415 0-623 208 0 415 0 623 0-1 122 0 245 2 367 42-40 83-82 124-123 1-87 1-174 0-262-12-61-48-97-108-109z" horiz-adv-x="1000" />

<glyph glyph-name="icon-jira" unicode="&#xe815;" d="M481 850c145 0 290 0 435-2 11-4 19-12 23-23 2-145 3-290 2-435-98 7-160 58-187 151-4 39-5 78-4 118-37-1-74 0-111 1-100 25-152 88-158 190z m183-235c15-2 25-11 29-25 2-144 2-288 2-432-95 5-157 52-187 142-4 41-5 82-4 124-35-1-70 0-105 1-92 18-147 73-164 165v25h429z m-393-486v-98c3-22 9-42 17-62 38-69 96-105 175-108 0 144 0 288-2 432-4 13-13 21-26 26-145 1-290 2-435 1 1-27 6-54 17-80 33-67 87-104 162-111h92z" horiz-adv-x="941" />

<glyph glyph-name="true" unicode="&#xe816;" d="M500-150c-135 0-260 50-355 145-95 95-145 220-145 355 0 135 50 260 145 355 95 95 220 145 355 145 135 0 260-50 355-145 95-95 145-220 145-355 0-135-50-260-145-355-95-95-220-145-355-145z m-200 535c-15 0-25-5-35-15-20-20-20-55 0-75l135-145c10-10 20-15 35-15 15 0 25 5 35 15l275 300c20 20 20 55 0 75-10 10-20 15-35 15-15 0-25-5-35-15l-240-260-100 110c-10 5-20 10-35 10l0 0z" horiz-adv-x="1000" />

<glyph glyph-name="icon-close" unicode="&#xe817;" d="M538 389l354-358c23-24 23-61 0-85-23-23-60-23-83 0l-354 359-354-359c-23-23-61-23-84 0-23 24-23 61 0 85l354 358-354 359c-23 24-23 61 0 85 12 11 27 17 42 17 15 0 30-6 42-17l354-359 354 359c11 11 26 17 41 17 15 0 30-6 42-17 23-24 23-61 0-85l-354-359z" horiz-adv-x="909" />

<glyph glyph-name="icon-close-menu" unicode="&#xe818;" d="M894 809c9-9 18-18 27-27 15-26 14-52-1-78-255-258-511-514-769-770-26-15-52-15-79 0-8 8-17 17-26 26-15 26-14 53 1 79 255 257 511 514 769 769 26 15 52 15 78 1z m21-847c-9-9-18-18-27-27-26-15-52-14-78 1-258 255-514 512-769 769-16 26-16 53-1 79 9 9 18 17 26 26 27 15 53 15 79-1 257-255 514-511 769-769 15-26 16-52 1-78z" horiz-adv-x="1000" />

<glyph glyph-name="icon-filter" unicode="&#xe819;" d="M394 674c0-97-88-176-197-176-109 0-197 79-197 176 0 97 88 176 197 176 109 0 197-79 197-176z m666 77c47 0 86-34 86-77 0-43-39-77-86-77h-377c-48 0-87 34-87 77 0 43 39 77 87 77h377z m-974-576h377c48 0 87-34 87-77 0-43-39-77-87-77h-377c-47 0-86 34-86 77 0 43 39 77 86 77z m863-251c109 0 197 79 197 176 0 97-88 176-197 176-109 0-197-79-197-176 0-97 88-176 197-176z" horiz-adv-x="1167" />

<glyph glyph-name="icon-maximize" unicode="&#xe81a;" d="M622 779c88 0 176 0 264-1 21-6 34-19 40-40 1-88 1-176 0-264-9-29-29-42-60-40-23 4-38 17-44 40 0 41-1 82-2 123-56-56-112-113-169-169-36-19-64-10-83 27-4 17-2 33 8 48 57 57 113 113 169 169-41 1-82 2-123 2-33 12-45 35-38 70 7 18 20 30 38 35z m-250-494c45-3 64-27 58-71-3-5-5-10-8-15-56-57-113-113-169-169 41-1 82-2 123-2 23-6 36-21 40-44 2-31-11-51-40-60-88-1-176-1-264 0-21 6-34 19-40 40-1 88-1 176 0 264 8 25 25 39 52 41 27-2 44-16 52-41 0-41 1-82 2-123 56 56 112 113 169 169 8 5 16 8 25 11z" horiz-adv-x="1000" />

<glyph glyph-name="icon-menu" unicode="&#xe81b;" d="M1333 788c0-14 0-28 0-42-9-32-30-53-62-61-403-2-806-2-1208 0-33 8-54 29-63 61 0 14 0 28 0 42 9 32 30 52 63 61 402 1 805 1 1208 0 32-9 53-29 62-61z m0-417c0-14 0-28 0-42-9-32-30-52-62-61-403-2-806-2-1208 0-33 9-54 29-63 61 0 14 0 28 0 42 9 32 30 52 63 61 402 2 805 2 1208 0 32-9 53-29 62-61z m0-417c0-14 0-28 0-42-9-32-30-52-62-61-403-1-806-1-1208 0-33 9-54 29-63 61 0 14 0 28 0 42 9 32 30 53 63 61 402 2 805 2 1208 0 32-8 53-29 62-61z" horiz-adv-x="1333" />

<glyph glyph-name="icon-minimize" unicode="&#xe81c;" d="M871 418c-88 0-176 0-264 1-21 6-34 19-40 40-1 88-1 176 0 264 9 29 29 42 60 40 23-4 38-17 44-40 0-41 1-82 2-123 56 56 112 113 169 169 36 19 64 10 83-26 4-18 2-34-8-49-57-57-113-113-169-169 41-1 82-2 123-2 33-12 45-35 38-70-7-18-20-29-38-35z m-741-495c-45 3-64 26-57 71 2 5 5 10 7 15 57 57 113 113 169 169-41 1-82 1-123 2-23 6-36 21-40 44-2 30 11 50 40 60 88 1 176 1 264 0 21-6 34-19 40-40 1-88 1-176 0-264-8-26-25-39-52-41-27 2-44 15-52 41 0 41-1 82-2 123-56-56-112-113-168-169-9-5-17-8-26-11z" horiz-adv-x="1000" />

<glyph glyph-name="icon-send" unicode="&#xe81d;" d="M673 727l-377-125c-253-85-253-223 0-307l112-37 37-112c84-253 223-253 307 0l125 376c56 169-36 261-204 205z m13-224l-158-160c-7-6-15-9-23-9-7 0-15 3-22 9-5 6-9 14-9 22 0 9 4 17 9 23l159 159c12 12 32 12 44 0 12-12 12-32 0-44z" horiz-adv-x="1000" />

<glyph glyph-name="icon-camera" unicode="&#xe81e;" d="M782 628c-4 0-8 4-12 7l-3 11c-4 4-4 11-8 15-11 26-22 48-29 63-23 45-63 70-111 70h-237c-49 0-86-25-112-70-7-18-22-48-37-74 0-4-3-7-3-11l-4-4c0-3-4-7-7-7-123 0-219-96-219-215v-293c0-118 96-214 219-214h563c118 0 218 96 218 214v293c0 119-96 215-218 215z m-145-482c-37-33-85-55-137-55-52 0-100 18-141 55-37 37-59 86-59 137 0 52 19 100 56 137 37 37 85 56 140 56 52 0 104-19 141-56 37-37 59-85 59-137 0-51-22-100-59-137z m145 256c-26 0-45 18-45 44 0 26 19 45 45 45 25 0 44-19 44-45 0-26-22-44-44-44z m-282 4c-33 0-63-12-85-37-22-23-37-52-33-86v0c0-33 11-63 37-85 22-22 51-33 85-33 66 0 122 55 122 118 0 34-11 63-37 86-26 22-56 37-89 37z" horiz-adv-x="1000" />

<glyph glyph-name="close-fill" unicode="&#xe81f;" d="M500-150c-135 0-260 50-355 145-95 95-145 220-145 355 0 135 50 260 145 355 95 90 220 145 355 145 135 0 260-50 355-145 95-95 145-220 145-355 0-135-50-260-145-355-95-95-220-145-355-145z m15 420l0 0 155-155c10-10 20-15 35-15 10 0 25 5 35 15 20 20 20 50 0 65l-155 155 155 155c5 5 10 20 10 30 0 10-5 25-15 35-10 10-20 15-35 15-10 0-25-5-35-15l-150-155-155 155c-5 10-20 15-30 15-10 0-25-5-35-15-10-10-15-20-15-35 0-10 5-25 15-35l155-150-155-155c-10-10-15-20-15-35 0-15 5-25 15-35 10-5 20-10 35-10 10 0 25 5 35 15l150 155 0 0z" horiz-adv-x="1000" />

<glyph glyph-name="positive-outline" unicode="&#xe821;" d="M863 600c-100 131-232 200-407 188-50-7-106-19-150-44-125-69-206-169-237-313-25-168 25-312 156-425 131-100 275-125 431-69 132 50 219 144 263 282 37 137 19 262-56 381z m-44-375c-63-137-169-212-319-219-150 7-256 82-319 219-50 144-18 269 88 375 62 63 137 94 231 94 113-6 206-50 275-138 69-100 88-212 44-331z m-150 169c-44 0-81 0-125 0 0 44 0 81 0 125 0 19-13 31-31 37-32 7-50-6-63-31 0-44 0-81 0-125-44 0-81 0-125 0-12-6-25-19-25-37-6-32 6-50 31-63 44 0 82 0 125 0 0-44 0-81 0-125 7-19 19-25 32-31 31-6 50 6 62 31 0 44 0 81 0 125 44 0 81 0 125 0 19 6 25 13 31 31 0 38-12 57-37 63z" horiz-adv-x="1000" />
</font>
</defs>
</svg>
