<svg xmlns="http://www.w3.org/2000/svg" width="462.635" height="192" viewBox="0 0 462.635 192">
    <defs>
        <linearGradient id="ug8nzwypra" x1=".5" x2=".5" y2="1" gradientUnits="objectBoundingBox">
            <stop offset="0" stop-color="#989898"/>
            <stop offset=".682" stop-color="#7b7b7b" stop-opacity=".22"/>
            <stop offset="1" stop-color="#6d6d6d" stop-opacity="0"/>
        </linearGradient>
    </defs>
    <g data-name="404-image">
        <g data-name="404-image">
            <path data-name="Subtraction 11" d="M-1259.713 783.381v-16.018h-.044l-35.058-.087v-17.115l30.093-71.16 25.52.087v71.683l11.28.043v16.68l-11.28-.043V779.4a377.87 377.87 0 0 0-20.511 3.982zm-.045-81.691-17.681 48.994 17.681.043V701.69z" transform="translate(1403.816 -679.001)" style="fill:#919191"/>
            <path data-name="Subtraction 13" d="M-1239.2 791.948a344.2 344.2 0 0 0-20.511-5.756v-18.829h-.044l-35.058-.087V750.16l30.093-71.16 25.52.087v71.683l11.28.043v16.68l-11.28-.043v24.5zm-20.556-90.259-17.681 48.994 17.681.043z" transform="translate(1586.424 -679.001)" style="fill:#919191"/>
            <g data-name="Group 81316">
                <path data-name="Path 62365" d="M204.537 169.253a4 4 0 0 0-.821-1.761c-.832-.889-1.72-1.722-2.594-2.569s-1.769-1.674-2.677-2.487-1.819-1.623-2.741-2.422a111.328 111.328 0 0 0-5.734-4.593q-1.351-1-2.742-1.96a3.328 3.328 0 0 0-.769-3.5l-1.355-1.355a3.336 3.336 0 0 0-.8-.593 40.261 40.261 0 1 0-7.547 7.548 3.321 3.321 0 0 0 .593.8l1.355 1.355a3.327 3.327 0 0 0 3.5.769q.956 1.4 1.96 2.742a111.868 111.868 0 0 0 4.593 5.734c.8.922 1.6 1.845 2.423 2.741s1.646 1.8 2.487 2.676 1.681 1.762 2.569 2.594a4 4 0 0 0 1.761.821 6.013 6.013 0 0 0 2.683-.1 5.116 5.116 0 0 0 3.755-3.755 6.008 6.008 0 0 0 .101-2.685zM125.772 150.1a37.529 37.529 0 1 1 53.069 0 37.529 37.529 0 0 1-53.069 0z" transform="translate(71.957 -83.302)" style="fill:#919191"/>
                <g data-name="Group 79918">
                    <path data-name="Path 62366" d="M204.537 169.253a4 4 0 0 0-.821-1.761c-.832-.889-1.72-1.722-2.594-2.569s-1.769-1.674-2.677-2.487-1.819-1.623-2.741-2.422a111.328 111.328 0 0 0-5.734-4.593q-1.351-1-2.742-1.96a3.328 3.328 0 0 0-.769-3.5l-1.355-1.355a3.336 3.336 0 0 0-.8-.593 40.261 40.261 0 1 0-7.547 7.548 3.321 3.321 0 0 0 .593.8l1.355 1.355a3.327 3.327 0 0 0 3.5.769q.956 1.4 1.96 2.742a111.868 111.868 0 0 0 4.593 5.734c.8.922 1.6 1.845 2.423 2.741s1.646 1.8 2.487 2.676 1.681 1.762 2.569 2.594a4 4 0 0 0 1.761.821 6.013 6.013 0 0 0 2.683-.1 5.116 5.116 0 0 0 3.755-3.755 6.008 6.008 0 0 0 .101-2.685zM125.772 150.1a37.529 37.529 0 1 1 53.069 0 37.529 37.529 0 0 1-53.069 0z" transform="translate(71.957 -83.302)" style="opacity:.2;fill:#919191"/>
                    <path data-name="Path 62367" d="m330.226 306.5 5.025-5.025a8.711 8.711 0 0 1-5.025 5.025z" transform="translate(-76.066 -231.32)" style="opacity:.3;fill:#919191"/>
                </g>
            </g>
            <g data-name="Group 81317">
                <path data-name="Exclusion 22" d="M40.5 81A40.511 40.511 0 0 1 24.736 3.183a40.51 40.51 0 0 1 31.528 74.634A40.246 40.246 0 0 1 40.5 81zm0-75.737A35.237 35.237 0 1 0 75.737 40.5 35.277 35.277 0 0 0 40.5 5.263z" transform="translate(183.999 -.001)" style="fill:#919191"/>
            </g>
        </g>
        <path data-name="Exclusion 2" d="M-3075.365-197H-3538c9.27-13.527 21.8-26.161 37.233-37.553a248.1 248.1 0 0 1 53.286-29.411C-3405.908-281-3357.22-290-3306.682-290s99.225 9 140.8 26.035a248.043 248.043 0 0 1 53.284 29.411c15.438 11.393 27.965 24.027 37.233 37.552zm-239.017-57.569v44.023h8.339v-12.333c0-.727-.037-1.481-.109-2.242a22.221 22.221 0 0 0-.329-2.242h.438a12.476 12.476 0 0 0 1.941 1.9 9.346 9.346 0 0 0 2.707 1.449 11.486 11.486 0 0 0 3.8.561 10.623 10.623 0 0 0 6.1-1.8 11.908 11.908 0 0 0 4.157-5.346 22.487 22.487 0 0 0 1.5-8.736c0-5.153-1.072-9.118-3.186-11.785a10.19 10.19 0 0 0-8.354-4.019 11.042 11.042 0 0 0-3.842.615 8.975 8.975 0 0 0-2.83 1.654 11.755 11.755 0 0 0-2 2.27h-.383l-1.175-3.964zm66.909 22.011a5.6 5.6 0 0 0-3.4 1.039 4.217 4.217 0 0 0-1.409 3.609 4.242 4.242 0 0 0 1.409 3.555 5.4 5.4 0 0 0 3.4 1.094 5.323 5.323 0 0 0 3.35-1.094 4.242 4.242 0 0 0 1.408-3.555 4.217 4.217 0 0 0-1.408-3.609 5.509 5.509 0 0 0-3.35-1.039zm-33.276.437v6.89a22.687 22.687 0 0 0 4.607 1.368 31.747 31.747 0 0 0 5.483.409 20.478 20.478 0 0 0 7.218-1.107 8.979 8.979 0 0 0 4.361-3.254 9.165 9.165 0 0 0 1.463-5.263 8.439 8.439 0 0 0-1.04-4.416 8.613 8.613 0 0 0-2.953-2.871 32.681 32.681 0 0 0-4.512-2.228c-1.773-.723-3.139-1.326-4.061-1.791a6.112 6.112 0 0 1-1.859-1.272 2 2 0 0 1-.478-1.312 1.607 1.607 0 0 1 .93-1.5 6.1 6.1 0 0 1 2.761-.492 13.672 13.672 0 0 1 4.088.629 43.588 43.588 0 0 1 4.28 1.613l2.516-6.016a26.663 26.663 0 0 0-5.318-1.831 25.042 25.042 0 0 0-5.428-.574 16.033 16.033 0 0 0-8.818 2.147 7.15 7.15 0 0 0-3.295 6.385 9.161 9.161 0 0 0 .888 4.28 8.085 8.085 0 0 0 2.734 2.911 28.494 28.494 0 0 0 4.717 2.434 48.133 48.133 0 0 1 4.375 2.038 5.587 5.587 0 0 1 1.819 1.394 2.39 2.39 0 0 1 .424 1.381 2.222 2.222 0 0 1-1.053 1.9 6.379 6.379 0 0 1-3.487.725 20.85 20.85 0 0 1-5.018-.725 32.471 32.471 0 0 1-5.345-1.846zm-55.262-23.023a16.367 16.367 0 0 0-7.957 1.832 12.443 12.443 0 0 0-5.141 5.359 18.832 18.832 0 0 0-1.8 8.613 19.769 19.769 0 0 0 1.08 6.782 13.947 13.947 0 0 0 3.062 4.991 13.012 13.012 0 0 0 4.677 3.076 16.4 16.4 0 0 0 5.919 1.039 17.5 17.5 0 0 0 6.194-1.039 12.673 12.673 0 0 0 4.7-3.076 13.531 13.531 0 0 0 2.98-4.991 20.713 20.713 0 0 0 1.026-6.782 18.038 18.038 0 0 0-1.9-8.613 13.05 13.05 0 0 0-5.223-5.359 15.579 15.579 0 0 0-7.617-1.832zm-39.648-9.462a20.765 20.765 0 0 0-10.774 2.543 15.453 15.453 0 0 0-6.275 7.151 26.682 26.682 0 0 0-2.038 10.814 29.3 29.3 0 0 0 1.148 8.449 17.941 17.941 0 0 0 3.487 6.535 15.269 15.269 0 0 0 5.92 4.2 22.459 22.459 0 0 0 8.476 1.462 22.463 22.463 0 0 0 8.476-1.462 15.273 15.273 0 0 0 5.92-4.2 17.96 17.96 0 0 0 3.487-6.521 29.023 29.023 0 0 0 1.148-8.408 26.84 26.84 0 0 0-2.038-10.856 15.508 15.508 0 0 0-6.234-7.164 20.479 20.479 0 0 0-10.704-2.542zm123.484.629 1.394 26.715h6.672l1.395-26.715zm-83.891 33.825a5.957 5.957 0 0 1-3.636-1.039 6.011 6.011 0 0 1-2.052-3.09 16.875 16.875 0 0 1-.656-5.059c0-3.012.5-5.3 1.49-6.808a5.338 5.338 0 0 1 4.8-2.269 6.073 6.073 0 0 1 3.637 1.012 5.774 5.774 0 0 1 2.037 3.021 16.906 16.906 0 0 1 .643 5.044 17.215 17.215 0 0 1-.643 5.059 5.968 5.968 0 0 1-2.023 3.09 5.849 5.849 0 0 1-3.597 1.039zm36.121-.055a5.7 5.7 0 0 1-3.65-1.067 5.85 5.85 0 0 1-1.886-3.117 19.338 19.338 0 0 1-.561-5v-.9a16.117 16.117 0 0 1 .643-4.567 5.142 5.142 0 0 1 1.873-2.707 5.971 5.971 0 0 1 3.473-.9 4.73 4.73 0 0 1 4.32 2.27c.926 1.506 1.4 3.778 1.4 6.754a17.938 17.938 0 0 1-.616 5.045 6.492 6.492 0 0 1-1.846 3.131 4.648 4.648 0 0 1-3.151 1.059zm-75.769-.356a9.678 9.678 0 0 1-5.8-1.627 9.383 9.383 0 0 1-3.295-4.649 22.054 22.054 0 0 1-1.053-7.2 22.153 22.153 0 0 1 1.053-7.232 9.351 9.351 0 0 1 3.308-4.648 9.79 9.79 0 0 1 5.838-1.627 10.922 10.922 0 0 1 4.628.9 7.393 7.393 0 0 1 3.11 2.707c1.561 2.4 2.352 5.726 2.352 9.9a22.591 22.591 0 0 1-1.026 7.2 9.229 9.229 0 0 1-3.267 4.649 9.778 9.778 0 0 1-5.849 1.628z" transform="translate(3538 389)" style="fill:url(#ug8nzwypra)"/>
    </g>
</svg>
