<svg width="16" height="16" viewBox="0 0 16 16" fill="none" xmlns="http://www.w3.org/2000/svg">
<path opacity="0.988" fill-rule="evenodd" clip-rule="evenodd" d="M13 3.65377C13 3.76885 13 3.88393 13 3.99901C12.9598 4.1292 12.8979 4.25069 12.8145 4.36343C11.3919 5.76036 9.96939 7.15732 8.54688 8.55425C8.43207 8.63621 8.30836 8.69693 8.17578 8.73646C8.05859 8.73646 7.94141 8.73646 7.82422 8.73646C7.69164 8.69693 7.56793 8.63621 7.45312 8.55425C6.03061 7.15732 4.60807 5.76036 3.18555 4.36343C3.10209 4.25069 3.04025 4.1292 3 3.99901C3 3.88393 3 3.76885 3 3.65377C3.15508 3.16663 3.49361 2.95247 4.01562 3.01124C4.11969 3.03354 4.21734 3.0719 4.30859 3.12632C5.54205 4.3216 6.77252 5.52034 8 6.72257C9.22748 5.52034 10.4579 4.3216 11.6914 3.12632C12.1076 2.91465 12.482 2.969 12.8145 3.28935C12.8979 3.40209 12.9598 3.52357 13 3.65377Z" fill="#29B6F6"/>
<path opacity="0.988" fill-rule="evenodd" clip-rule="evenodd" d="M13 7.91732C13 8.0324 13 8.14748 13 8.26256C12.9598 8.39275 12.8979 8.51424 12.8145 8.62698C11.3919 10.0239 9.96939 11.4209 8.54688 12.8178C8.43207 12.8998 8.30836 12.9605 8.17578 13C8.05859 13 7.94141 13 7.82422 13C7.69164 12.9605 7.56793 12.8998 7.45312 12.8178C6.03061 11.4209 4.60807 10.0239 3.18555 8.62698C3.10209 8.51424 3.04025 8.39275 3 8.26256C3 8.14748 3 8.0324 3 7.91732C3.15508 7.43018 3.49361 7.21602 4.01562 7.27479C4.11969 7.29709 4.21734 7.33545 4.30859 7.38987C5.54205 8.58515 6.77252 9.78389 8 10.9861C9.22748 9.78389 10.4579 8.58515 11.6914 7.38987C12.1076 7.1782 12.482 7.23255 12.8145 7.5529C12.8979 7.66564 12.9598 7.78712 13 7.91732Z" fill="#0094FF"/>
</svg>
