<svg width="50" height="50" viewBox="0 0 50 50" fill="none" xmlns="http://www.w3.org/2000/svg">
<rect width="50" height="50" rx="25" fill="#FEBF20"/>
<g clip-path="url(#clip0_1001_15284)">
<path d="M25.0007 36.9999C23.4242 37.0047 21.862 36.6964 20.4052 36.0936C18.9485 35.4907 17.6259 34.6055 16.5138 33.488C15.3964 32.3755 14.5104 31.0522 13.9075 29.5953C13.3045 28.1383 12.9968 26.5762 13.0012 24.9994C12.9968 23.4227 13.3053 21.8611 13.9084 20.4044C14.5116 18.9478 15.3971 17.6246 16.5148 16.5127C17.6266 15.3949 18.9496 14.5093 20.4062 13.9061C21.8628 13.3029 23.4242 12.9945 25.0007 12.9989C26.5772 12.9942 28.1386 13.3023 29.5953 13.9051C31.052 14.508 32.3754 15.3934 33.4877 16.5107C34.6054 17.623 35.491 18.9464 36.094 20.4035C36.697 21.8605 37.0051 23.4225 37.0002 24.9994C37.0048 26.5764 36.697 28.1391 36.094 29.5962C35.4911 31.0534 34.6052 32.3764 33.4877 33.489C32.3755 34.6063 31.052 35.4919 29.5953 36.0945C28.1385 36.6972 26.5772 37.0048 25.0007 36.9999ZM25.033 29.6099C24.5883 29.6102 24.1619 29.7867 23.8475 30.1011C23.533 30.4156 23.3565 30.842 23.3563 31.2867C23.3573 31.7307 23.534 32.1559 23.8484 32.4694C24.1628 32.7829 24.589 32.9589 25.033 32.9587C25.4765 32.9584 25.9017 32.7819 26.2155 32.4684C26.5293 32.155 26.7059 31.7303 26.7067 31.2867C26.7067 30.8425 26.5303 30.4165 26.2165 30.1021C25.9027 29.7877 25.4772 29.6107 25.033 29.6099ZM24.9919 16.5556C24.6629 16.5559 24.3477 16.6872 24.115 16.9199C23.8824 17.1526 23.7511 17.4678 23.7508 17.7969V25.7845C23.7511 26.1136 23.8824 26.4289 24.115 26.6615C24.3477 26.8942 24.6629 27.0255 24.9919 27.0258C25.3207 27.0253 25.6356 26.8942 25.8679 26.6615C26.1002 26.4289 26.2312 26.1134 26.2312 25.7845V17.7969C26.2309 17.4683 26.1002 17.1534 25.8679 16.9209C25.6356 16.6884 25.3205 16.5562 24.9919 16.5556Z" fill="white"/>
</g>
<defs>
<clipPath id="clip0_1001_15284">
<rect width="24" height="24" fill="white" transform="translate(13 13)"/>
</clipPath>
</defs>
</svg>
