<svg width="16" height="16" viewBox="0 0 16 16" fill="none" xmlns="http://www.w3.org/2000/svg">
<path opacity="0.988" fill-rule="evenodd" clip-rule="evenodd" d="M13 1.6417C13 1.75465 13 1.86761 13 1.98056C12.9598 2.10835 12.8979 2.2276 12.8145 2.33825C11.3919 3.7094 9.96939 5.08056 8.54688 6.4517C8.43207 6.53215 8.30836 6.59175 8.17578 6.63055C8.05859 6.63055 7.94141 6.63055 7.82422 6.63055C7.69164 6.59175 7.56793 6.53215 7.45312 6.4517C6.03061 5.08056 4.60807 3.7094 3.18555 2.33825C3.10209 2.2276 3.04025 2.10835 3 1.98056C3 1.86761 3 1.75465 3 1.6417C3.15508 1.16356 3.49361 0.953348 4.01562 1.01103C4.11969 1.03292 4.21734 1.07058 4.30859 1.12399C5.54205 2.29719 6.77252 3.47381 8 4.65383C9.22748 3.47381 10.4579 2.29719 11.6914 1.12399C12.1076 0.916223 12.482 0.969576 12.8145 1.28401C12.8979 1.39466 12.9598 1.51391 13 1.6417Z" fill="#81D4FA"/>
<path opacity="0.988" fill-rule="evenodd" clip-rule="evenodd" d="M13 5.82642C13 5.93937 13 6.05233 13 6.16529C12.9598 6.29308 12.8979 6.41232 12.8145 6.52298C11.3919 7.89412 9.96939 9.26528 8.54688 10.6364C8.43207 10.7169 8.30836 10.7765 8.17578 10.8153C8.05859 10.8153 7.94141 10.8153 7.82422 10.8153C7.69164 10.7765 7.56793 10.7169 7.45312 10.6364C6.03061 9.26528 4.60807 7.89412 3.18555 6.52298C3.10209 6.41232 3.04025 6.29308 3 6.16529C3 6.05233 3 5.93937 3 5.82642C3.15508 5.34828 3.49361 5.13807 4.01562 5.19575C4.11969 5.21765 4.21734 5.2553 4.30859 5.30871C5.54205 6.48192 6.77252 7.65853 8 8.83856C9.22748 7.65853 10.4579 6.48192 11.6914 5.30871C12.1076 5.10095 12.482 5.1543 12.8145 5.46873C12.8979 5.57939 12.9598 5.69863 13 5.82642Z" fill="#29B6F6"/>
<path opacity="0.988" fill-rule="evenodd" clip-rule="evenodd" d="M13 10.0111C13 10.1241 13 10.2371 13 10.35C12.9598 10.4778 12.8979 10.597 12.8145 10.7077C11.3919 12.0788 9.96939 13.45 8.54688 14.8212C8.43207 14.9016 8.30836 14.9612 8.17578 15C8.05859 15 7.94141 15 7.82422 15C7.69164 14.9612 7.56793 14.9016 7.45312 14.8212C6.03061 13.45 4.60807 12.0788 3.18555 10.7077C3.10209 10.597 3.04025 10.4778 3 10.35C3 10.2371 3 10.1241 3 10.0111C3.15508 9.533 3.49361 9.32279 4.01562 9.38048C4.11969 9.40237 4.21734 9.44002 4.30859 9.49343C5.54205 10.6666 6.77252 11.8433 8 13.0233C9.22748 11.8433 10.4579 10.6666 11.6914 9.49343C12.1076 9.28567 12.482 9.33902 12.8145 9.65345C12.8979 9.76411 12.9598 9.88335 13 10.0111Z" fill="#0094FF"/>
</svg>
