<svg width="16" height="16" viewBox="0 0 16 16" fill="none" xmlns="http://www.w3.org/2000/svg">
<path opacity="0.988" fill-rule="evenodd" clip-rule="evenodd" d="M3 14.3583C3 14.2453 3 14.1324 3 14.0194C3.04025 13.8916 3.1021 13.7724 3.18555 13.6617C4.60807 12.2906 6.03061 10.9194 7.45312 9.5483C7.56793 9.46785 7.69164 9.40825 7.82422 9.36945C7.94141 9.36945 8.05859 9.36945 8.17578 9.36945C8.30836 9.40825 8.43207 9.46785 8.54688 9.5483C9.96939 10.9194 11.3919 12.2906 12.8145 13.6617C12.8979 13.7724 12.9597 13.8916 13 14.0194C13 14.1324 13 14.2453 13 14.3583C12.8449 14.8364 12.5064 15.0467 11.9844 14.989C11.8803 14.9671 11.7827 14.9294 11.6914 14.876C10.4579 13.7028 9.22748 12.5262 8 11.3462C6.77252 12.5262 5.54205 13.7028 4.30859 14.876C3.89238 15.0838 3.51804 15.0304 3.18555 14.716C3.1021 14.6053 3.04025 14.4861 3 14.3583Z" fill="#FFB300"/>
<path opacity="0.988" fill-rule="evenodd" clip-rule="evenodd" d="M3 10.1736C3 10.0606 3 9.94767 3 9.83471C3.04025 9.70692 3.1021 9.58768 3.18555 9.47702C4.60807 8.10588 6.03061 6.73472 7.45312 5.36357C7.56793 5.28313 7.69164 5.22353 7.82422 5.18473C7.94141 5.18473 8.05859 5.18473 8.17578 5.18473C8.30836 5.22353 8.43207 5.28313 8.54688 5.36357C9.96939 6.73472 11.3919 8.10588 12.8145 9.47702C12.8979 9.58768 12.9597 9.70692 13 9.83471C13 9.94767 13 10.0606 13 10.1736C12.8449 10.6517 12.5064 10.8619 11.9844 10.8042C11.8803 10.7824 11.7827 10.7447 11.6914 10.6913C10.4579 9.51808 9.22748 8.34147 8 7.16144C6.77252 8.34147 5.54205 9.51808 4.30859 10.6913C3.89238 10.8991 3.51804 10.8457 3.18555 10.5313C3.1021 10.4206 3.04025 10.3014 3 10.1736Z" fill="#F57C00"/>
<path opacity="0.988" fill-rule="evenodd" clip-rule="evenodd" d="M3 5.98886C3 5.8759 3 5.76295 3 5.64999C3.04025 5.5222 3.1021 5.40296 3.18555 5.2923C4.60807 3.92116 6.03061 2.54999 7.45312 1.17885C7.56793 1.09841 7.69164 1.0388 7.82422 1C7.94141 1 8.05859 1 8.17578 1C8.30836 1.0388 8.43207 1.09841 8.54688 1.17885C9.96939 2.54999 11.3919 3.92116 12.8145 5.2923C12.8979 5.40296 12.9597 5.5222 13 5.64999C13 5.76295 13 5.8759 13 5.98886C12.8449 6.467 12.5064 6.67721 11.9844 6.61952C11.8803 6.59763 11.7827 6.55998 11.6914 6.50657C10.4579 5.33336 9.22748 4.15674 8 2.97672C6.77252 4.15674 5.54205 5.33336 4.30859 6.50657C3.89238 6.71433 3.51804 6.66098 3.18555 6.34655C3.1021 6.23589 3.04025 6.11665 3 5.98886Z" fill="#FF5722"/>
</svg>
