<svg width="50" height="50" viewBox="0 0 50 50" fill="none" xmlns="http://www.w3.org/2000/svg">
<rect width="50" height="50" rx="25" fill="#FA5758"/>
<g clip-path="url(#clip0_1001_15285)">
<path d="M25 37C21.76 37 18.76 35.8 16.48 33.52C14.2 31.24 13 28.24 13 25C13 21.76 14.2 18.76 16.48 16.48C18.76 14.32 21.76 13 25 13C28.24 13 31.24 14.2 33.52 16.48C35.8 18.76 37 21.76 37 25C37 28.24 35.8 31.24 33.52 33.52C31.24 35.8 28.24 37 25 37ZM25.36 26.92L29.08 30.64C29.32 30.88 29.56 31 29.92 31C30.16 31 30.52 30.88 30.76 30.64C31.24 30.16 31.24 29.44 30.76 29.08L27.04 25.36L30.76 21.64C30.88 21.52 31 21.16 31 20.92C31 20.68 30.88 20.32 30.64 20.08C30.4 19.84 30.16 19.72 29.8 19.72C29.56 19.72 29.2 19.84 28.96 20.08L25.36 23.8L21.64 20.08C21.52 19.84 21.16 19.72 20.92 19.72C20.68 19.72 20.32 19.84 20.08 20.08C19.84 20.32 19.72 20.56 19.72 20.92C19.72 21.16 19.84 21.52 20.08 21.76L23.8 25.36L20.08 29.08C19.84 29.32 19.72 29.56 19.72 29.92C19.72 30.28 19.84 30.52 20.08 30.76C20.32 30.88 20.56 31 20.92 31C21.16 31 21.52 30.88 21.76 30.64L25.36 26.92Z" fill="white"/>
</g>
<defs>
<clipPath id="clip0_1001_15285">
<rect width="24" height="24" fill="white" transform="translate(13 13)"/>
</clipPath>
</defs>
</svg>
