<svg width="16" height="16" viewBox="0 0 16 16" fill="none" xmlns="http://www.w3.org/2000/svg">
<path opacity="0.988" fill-rule="evenodd" clip-rule="evenodd" d="M3 12.3462C3 12.2312 3 12.1161 3 12.001C3.04025 11.8708 3.1021 11.7493 3.18555 11.6366C4.60807 10.2396 6.03061 8.84268 7.45312 7.44575C7.56793 7.36379 7.69164 7.30307 7.82422 7.26354C7.94141 7.26354 8.05859 7.26354 8.17578 7.26354C8.30836 7.30307 8.43207 7.36379 8.54688 7.44575C9.96939 8.84268 11.3919 10.2396 12.8145 11.6366C12.8979 11.7493 12.9597 11.8708 13 12.001C13 12.1161 13 12.2312 13 12.3462C12.8449 12.8334 12.5064 13.0475 11.9844 12.9888C11.8803 12.9665 11.7827 12.9281 11.6914 12.8737C10.4579 11.6784 9.22748 10.4797 8 9.27743C6.77252 10.4797 5.54205 11.6784 4.30859 12.8737C3.89238 13.0854 3.51804 13.031 3.18555 12.7107C3.1021 12.5979 3.04025 12.4764 3 12.3462Z" fill="#F57C00"/>
<path opacity="0.988" fill-rule="evenodd" clip-rule="evenodd" d="M3 8.08271C3 7.96763 3 7.85255 3 7.73747C3.04025 7.60728 3.1021 7.48579 3.18555 7.37305C4.60807 5.97612 6.03061 4.57916 7.45312 3.18223C7.56793 3.10027 7.69164 3.03955 7.82422 3.00002C7.94141 3.00002 8.05859 3.00002 8.17578 3.00002C8.30836 3.03955 8.43207 3.10027 8.54688 3.18223C9.96939 4.57916 11.3919 5.97612 12.8145 7.37305C12.8979 7.48579 12.9597 7.60728 13 7.73747C13 7.85255 13 7.96763 13 8.08271C12.8449 8.56985 12.5064 8.78401 11.9844 8.72524C11.8803 8.70294 11.7827 8.66458 11.6914 8.61016C10.4579 7.41489 9.22748 6.21614 8 5.01391C6.77252 6.21614 5.54205 7.41489 4.30859 8.61016C3.89238 8.82183 3.51804 8.76748 3.18555 8.44713C3.1021 8.33439 3.04025 8.21291 3 8.08271Z" fill="#FF5722"/>
</svg>
