<svg width="50" height="50" viewBox="0 0 50 50" fill="none" xmlns="http://www.w3.org/2000/svg">
<rect width="50" height="50" rx="25" fill="#3087E9"/>
<g clip-path="url(#clip0_1001_15283)">
<path d="M24.9995 37.0001C23.4228 37.0048 21.8605 36.6968 20.4037 36.0938C18.9468 35.4908 17.624 34.605 16.5119 33.4874C15.3942 32.3753 14.5084 31.0526 13.9053 29.5958C13.3023 28.139 12.9944 26.5767 12.999 25.0001C12.9942 23.4233 13.3025 21.8613 13.9053 20.4044C14.5082 18.9474 15.3934 17.6241 16.5109 16.5118C17.6233 15.3942 18.9466 14.5091 20.4037 13.9063C21.8607 13.3035 23.4227 12.9951 24.9995 13.0001C26.5762 12.9953 28.1386 13.3035 29.5954 13.9063C31.0523 14.5091 32.375 15.3943 33.4872 16.5118C34.6048 17.6242 35.4907 18.9474 36.0938 20.4044C36.6968 21.8613 37.0046 23.4233 37 25.0001C37.0046 26.5767 36.6968 28.139 36.0938 29.5958C35.4907 31.0525 34.6047 32.3752 33.4872 33.4874C32.375 34.6049 31.0523 35.4908 29.5954 36.0938C28.1386 36.6968 26.5762 37.0046 24.9995 37.0001ZM24.8511 30.8487C24.6655 30.8371 24.4799 30.8628 24.3042 30.9239C24.1286 30.985 23.9669 31.0808 23.8286 31.2051C23.7044 31.3433 23.6085 31.5053 23.5473 31.6807C23.4862 31.8562 23.4607 32.0412 23.4721 32.2266V32.6192C23.4606 32.8048 23.4862 32.9904 23.5473 33.1661C23.6085 33.3417 23.7043 33.5033 23.8286 33.6417C23.9661 33.7673 24.1274 33.8637 24.3032 33.9249C24.4791 33.9861 24.6654 34.0112 24.8511 33.9981H25.1519C25.3374 34.0105 25.5232 33.9851 25.6988 33.9239C25.8744 33.8627 26.0358 33.7667 26.1734 33.6417C26.2985 33.5038 26.3943 33.3428 26.4557 33.1671C26.517 32.9913 26.543 32.8049 26.5309 32.6192V32.2266C26.5425 32.0411 26.517 31.8553 26.4557 31.6797C26.3944 31.5042 26.2981 31.3431 26.1734 31.2051C26.0355 31.0805 25.8743 30.985 25.6988 30.9239C25.5232 30.8627 25.3374 30.8367 25.1519 30.8487H24.8511ZM25.4263 19.7413C26.189 19.7191 26.9312 19.991 27.4987 20.501C27.7658 20.7408 27.978 21.035 28.1208 21.3643C28.2635 21.6936 28.3335 22.0504 28.3259 22.4092C28.358 22.824 28.2907 23.2401 28.1305 23.6241C27.9704 24.0081 27.7222 24.3491 27.4049 24.6182C26.6948 25.1211 25.8365 25.3719 24.9673 25.3311C24.7837 25.3261 24.6015 25.359 24.4312 25.4278C24.2608 25.4966 24.1057 25.6003 23.977 25.7315C23.8496 25.8644 23.7498 26.0208 23.6831 26.1924C23.6163 26.364 23.5843 26.5474 23.5884 26.7315V28.4786C23.5837 28.6627 23.6163 28.846 23.6831 29.0176C23.7499 29.1893 23.8492 29.346 23.977 29.4786C24.1057 29.6097 24.2608 29.7135 24.4312 29.7823C24.6015 29.8511 24.7837 29.8839 24.9673 29.879C25.1507 29.8844 25.3334 29.8521 25.5035 29.7833C25.6736 29.7144 25.8277 29.6101 25.9556 29.4786C26.0845 29.3465 26.1852 29.1904 26.2525 29.0186C26.3199 28.8469 26.352 28.663 26.3473 28.4786V27.6251C26.3473 27.5821 26.3855 27.5428 26.4615 27.5108C27.7278 27.3569 28.9087 26.7918 29.822 25.9014C30.2549 25.4315 30.5895 24.8794 30.8064 24.2784C31.0233 23.6774 31.1178 23.0395 31.0848 22.4014C31.0917 21.4324 30.8298 20.4804 30.3279 19.6514C29.8312 18.8266 29.1242 18.1479 28.279 17.6866C27.405 17.2077 26.4219 16.9619 25.4253 16.9727C24.6086 16.9672 23.7994 17.1281 23.0463 17.4444C22.3164 17.7509 21.6552 18.2004 21.1029 18.7676C20.9679 18.8901 20.8599 19.0392 20.7845 19.2051C20.7092 19.3711 20.6687 19.5512 20.6654 19.7335C20.6713 19.9486 20.7289 20.1586 20.8334 20.3467C20.9378 20.5349 21.0856 20.6957 21.265 20.8145C21.4854 20.9935 21.7614 21.0898 22.0453 21.0879C22.4798 21.0736 22.8924 20.8925 23.1967 20.5821C23.8085 20.0322 24.6038 19.7329 25.4263 19.7413Z" fill="white"/>
</g>
<defs>
<clipPath id="clip0_1001_15283">
<rect width="24" height="24" fill="white" transform="translate(13 13)"/>
</clipPath>
</defs>
</svg>
