<svg width="50" height="50" viewBox="0 0 50 50" fill="none" xmlns="http://www.w3.org/2000/svg">
<rect width="50" height="50" rx="25" fill="#51DC6B"/>
<g clip-path="url(#clip0_1001_15282)">
<path d="M20.462 14.355C17.901 15.1 15.746 15.733 15.669 15.766C15.5704 15.8232 15.4847 15.9002 15.4173 15.9921C15.3498 16.084 15.302 16.1888 15.277 16.3C15.218 16.539 15.106 17.749 15.047 18.832C14.988 19.915 14.984 22.332 15.047 23.262C15.272 26.605 15.935 29.123 17.047 30.862C18.3736 32.894 20.169 34.5776 22.282 35.771C23.219 36.3211 24.229 36.7362 25.282 37.004C26.0249 36.8302 26.7441 36.5673 27.424 36.221C29.9007 35.0171 32.0055 33.1653 33.515 30.862C34.629 29.127 35.291 26.61 35.515 23.262C35.6108 21.2533 35.5717 19.2405 35.398 17.237C35.303 16.182 35.227 15.943 34.938 15.788C34.749 15.688 25.402 12.994 25.253 12.998C25.183 13 23.028 13.609 20.462 14.355ZM30.17 19.8C30.301 19.837 30.47 19.978 30.815 20.325C31.0167 20.5216 31.2051 20.7314 31.379 20.953C31.4349 21.0686 31.4659 21.1947 31.4699 21.323C31.4738 21.4514 31.4507 21.5792 31.402 21.698C31.302 21.898 24.833 28.598 24.684 28.656C24.4931 28.7226 24.2842 28.7158 24.098 28.637C23.913 28.553 19.851 24.319 19.788 24.137C19.648 23.757 19.779 23.467 20.361 22.871C20.943 22.275 21.204 22.163 21.605 22.371C22.1347 22.821 22.6331 23.3064 23.097 23.824L24.405 25.184L26.975 22.516C29.814 19.568 29.701 19.662 30.17 19.8Z" fill="white"/>
</g>
<defs>
<clipPath id="clip0_1001_15282">
<rect width="24" height="24" fill="white" transform="translate(13 13)"/>
</clipPath>
</defs>
</svg>
