<svg width="18" height="18" viewBox="0 0 18 18" fill="none" xmlns="http://www.w3.org/2000/svg">
<g clip-path="url(#clip0_387_15962)">
<path opacity="0.998" fill-rule="evenodd" clip-rule="evenodd" d="M8.17383 -0.0175781C8.71288 -0.0175781 9.25196 -0.0175781 9.79102 -0.0175781C12.9426 0.3652 15.3156 1.9238 16.9102 4.6582C17.4971 5.76461 17.8545 6.93647 17.9824 8.17383C17.9824 8.71288 17.9824 9.25196 17.9824 9.79102C17.5996 12.9426 16.0411 15.3156 13.3066 16.9102C12.2002 17.4971 11.0284 17.8545 9.79102 17.9824C9.25196 17.9824 8.71288 17.9824 8.17383 17.9824C5.02228 17.5996 2.64924 16.0411 1.05469 13.3066C0.467764 12.2002 0.110341 11.0284 -0.0175781 9.79102C-0.0175781 9.25196 -0.0175781 8.71288 -0.0175781 8.17383C0.365186 5.02232 1.92378 2.64928 4.6582 1.05469C5.76461 0.467764 6.93647 0.110341 8.17383 -0.0175781Z" fill="#605BFF"/>
<path fill-rule="evenodd" clip-rule="evenodd" d="M11.6543 4.06055C12.0152 4.0307 12.3434 4.11859 12.6387 4.32422C12.9727 4.6582 13.3066 4.99219 13.6406 5.32617C13.9526 5.74629 13.9877 6.19161 13.7461 6.66211C13.3834 7.06588 13.0025 7.4526 12.6035 7.82226C11.7715 7.01367 10.9512 6.19337 10.1426 5.36133C10.4878 4.99855 10.8393 4.64112 11.1973 4.28906C11.3431 4.19273 11.4954 4.11655 11.6543 4.06055Z" fill="white"/>
<path fill-rule="evenodd" clip-rule="evenodd" d="M9.61524 5.85352C10.4519 6.67259 11.2839 7.49876 12.1113 8.33203C10.5635 9.8916 9.00489 11.4385 7.43555 12.9727C7.20799 13.1189 6.96189 13.2244 6.69727 13.2891C6.08583 13.4577 5.47647 13.6335 4.86915 13.8164C4.69765 13.8799 4.52187 13.9033 4.3418 13.8867C4.11093 13.7454 4.02304 13.5403 4.07813 13.2715C4.25433 12.6727 4.43011 12.0751 4.60547 11.4785C4.68827 11.1715 4.80544 10.8786 4.95704 10.5996C5.16797 10.3652 5.37891 10.1309 5.58985 9.89648C6.93872 8.55348 8.28053 7.2058 9.61524 5.85352Z" fill="white"/>
</g>
<defs>
<clipPath id="clip0_387_15962">
<rect width="18" height="18" fill="white"/>
</clipPath>
</defs>
</svg>
