<svg width="132" height="32" viewBox="0 0 132 32" fill="none" xmlns="http://www.w3.org/2000/svg">
<g id="Logo">
<path id="Union" fill-rule="evenodd" clip-rule="evenodd" d="M1.97652 25.5936C1.41869 25.5936 0.965462 25.4635 0.616823 25.2031C0.291426 24.9428 0.0938644 24.5997 0.0241366 24.1737C-0.0455913 23.7241 0.0357578 23.2271 0.268184 22.6828L9.47225 1.91686C9.77441 1.23058 10.1347 0.745446 10.553 0.461466C10.9946 0.153822 11.4944 0 12.0522 0C12.5868 0 13.0632 0.153822 13.4816 0.461466C13.9232 0.745446 14.2951 1.23058 14.5972 1.91686L23.8362 22.6828C24.0919 23.2271 24.1848 23.7241 24.1151 24.1737C24.0454 24.6234 23.8478 24.9783 23.5224 25.2386C23.197 25.4753 22.767 25.5936 22.2324 25.5936C21.5816 25.5936 21.0703 25.4398 20.6984 25.1322C20.3498 24.8008 20.036 24.3039 19.7571 23.6413L17.491 18.2812H17.4322L16.4799 15.6956C16.4799 15.6956 16.4507 15.6838 16.3956 15.6624L12.0522 5.21812H11.9825L7.66932 15.6636C7.66027 15.6742 7.65128 15.6849 7.64236 15.6956C7.09907 16.3506 6.77189 17.3792 6.57795 18.2812H6.54369L4.3124 23.6413C4.01024 24.3275 3.69647 24.8245 3.37107 25.1322C3.04567 25.4398 2.58082 25.5936 1.97652 25.5936ZM34.0033 25.1251C34.4285 25.4086 34.9601 25.5503 35.598 25.5503C36.2595 25.5503 36.7792 25.4086 37.1572 25.1251C37.5588 24.8179 37.8896 24.3691 38.1494 23.7784L47.3986 3.01217C47.6585 2.42155 47.7411 1.9018 47.6466 1.45293C47.5522 1.00406 47.3277 0.649685 46.9733 0.389812C46.6426 0.129937 46.2173 0 45.6976 0C45.0597 0 44.5636 0.153562 44.2092 0.460686C43.8549 0.744185 43.5477 1.16943 43.2879 1.73643L35.6843 19.4567L28.0498 1.77187C27.8136 1.18125 27.5183 0.744185 27.1639 0.460686C26.8331 0.153562 26.3252 0 25.6401 0C25.1203 0 24.6715 0.129937 24.2935 0.389812C23.9155 0.649685 23.6674 1.00406 23.5493 1.45293C23.4311 1.9018 23.502 2.42155 23.7619 3.01217L33.011 23.7784C33.2709 24.3691 33.6017 24.8179 34.0033 25.1251ZM53.2419 25.2668C52.5095 25.2668 51.9425 25.066 51.5409 24.6644C51.1393 24.2391 50.9384 23.6603 50.9384 22.928V2.48062C50.9384 1.72463 51.1274 1.15763 51.5054 0.779632C51.9071 0.37801 52.4741 0.177199 53.2064 0.177199C53.9388 0.177199 54.494 0.37801 54.872 0.779632C55.2736 1.15763 55.4744 1.72463 55.4744 2.48062V21.4042H65.7512C66.3891 21.4042 66.8734 21.5695 67.2042 21.9003C67.5585 22.231 67.7357 22.7035 67.7357 23.3178C67.7357 23.932 67.5585 24.4163 67.2042 24.7707C66.8734 25.1014 66.3891 25.2668 65.7512 25.2668H53.2419ZM100.266 31.6456C101.471 31.8819 102.711 32 103.987 32C106.822 32 108.983 31.2913 110.472 29.8738C111.96 28.4563 112.704 26.3418 112.704 23.5305V9.88711C112.704 9.15474 112.515 8.59956 112.137 8.22156C111.759 7.84356 111.216 7.65456 110.507 7.65456C109.822 7.65456 109.279 7.84356 108.877 8.22156C108.499 8.59956 108.31 9.15474 108.31 9.88711V10.6097C107.915 9.84159 107.313 9.1991 106.503 8.68224C105.416 7.94987 104.14 7.58369 102.676 7.58369C101.518 7.58369 100.455 7.79631 99.4862 8.22156C98.5412 8.62318 97.7261 9.20199 97.041 9.95799C96.3795 10.714 95.8598 11.6235 95.4818 12.6867C95.1274 13.7262 94.9502 14.8956 94.9502 16.195C94.9502 17.9196 95.2691 19.4316 95.907 20.7309C96.5449 22.0303 97.4426 23.0462 98.6003 23.7785C99.7579 24.4873 101.116 24.8417 102.676 24.8417C104.093 24.8417 105.357 24.4873 106.467 23.7785C107.332 23.2203 107.97 22.5249 108.381 21.6921V24.062C108.381 25.574 107.979 26.708 107.176 27.464C106.396 28.2436 105.215 28.6335 103.632 28.6335C102.971 28.6335 102.168 28.5508 101.223 28.3854C100.301 28.2436 99.3208 27.9129 98.2813 27.3932C97.9269 27.2042 97.5844 27.1569 97.2536 27.2514C96.9229 27.3459 96.6394 27.5231 96.4031 27.783C96.1905 28.0428 96.0488 28.3381 95.9779 28.6689C95.9306 29.0233 95.9779 29.3658 96.1196 29.6966C96.285 30.0273 96.5921 30.3108 97.041 30.5471C98.0096 31.0432 99.0846 31.4094 100.266 31.6456ZM106.255 20.8372C105.593 21.2625 104.802 21.4751 103.88 21.4751C102.51 21.4751 101.423 21.0026 100.62 20.0576C99.8169 19.1126 99.4153 17.8251 99.4153 16.195C99.4153 15.1082 99.5925 14.175 99.9469 13.3954C100.325 12.6158 100.845 12.0134 101.506 11.5881C102.168 11.1629 102.959 10.9502 103.88 10.9502C105.251 10.9502 106.337 11.4227 107.141 12.3677C107.944 13.2891 108.346 14.5648 108.346 16.195C108.346 17.2817 108.157 18.2267 107.779 19.0299C107.424 19.8096 106.916 20.412 106.255 20.8372ZM120.412 25.3023C121.546 25.515 122.621 25.6213 123.637 25.6213C125.882 25.6213 127.677 25.137 129.024 24.1684C130.37 23.1761 131.044 21.8177 131.044 20.0931C131.044 18.8173 130.642 17.8014 129.839 17.0455C129.059 16.2895 127.902 15.7697 126.366 15.4862L122.822 14.8129C122.137 14.6948 121.629 14.4703 121.298 14.1396C120.968 13.8088 120.802 13.3954 120.802 12.8993C120.802 12.2378 121.074 11.7062 121.617 11.3046C122.184 10.903 123.047 10.7022 124.204 10.7022C124.819 10.7022 125.456 10.7849 126.118 10.9502C126.803 11.1156 127.512 11.3873 128.244 11.7653C128.646 11.9543 129 12.0252 129.307 11.9779C129.638 11.907 129.91 11.7535 130.122 11.5172C130.335 11.2574 130.477 10.9739 130.548 10.6667C130.618 10.336 130.583 10.017 130.441 9.70993C130.323 9.4028 130.087 9.15474 129.732 8.96574C128.882 8.49324 127.996 8.15068 127.075 7.93806C126.177 7.70181 125.208 7.58369 124.169 7.58369C122.728 7.58369 121.452 7.80812 120.342 8.257C119.231 8.70587 118.357 9.34374 117.719 10.1706C117.105 10.9975 116.798 11.9779 116.798 13.1119C116.798 14.364 117.176 15.3917 117.932 16.195C118.711 16.9746 119.834 17.5061 121.298 17.7896L124.842 18.4629C125.575 18.6047 126.118 18.8291 126.472 19.1363C126.85 19.4198 127.039 19.8332 127.039 20.3766C127.039 21.0144 126.756 21.5342 126.189 21.9358C125.645 22.3138 124.807 22.5028 123.673 22.5028C122.869 22.5028 122.054 22.4201 121.228 22.2547C120.401 22.0657 119.515 21.7468 118.57 21.2979C118.192 21.1089 117.837 21.0499 117.507 21.1207C117.199 21.1916 116.94 21.3452 116.727 21.5814C116.538 21.8177 116.42 22.1012 116.373 22.4319C116.349 22.739 116.408 23.058 116.55 23.3887C116.715 23.6959 116.987 23.9675 117.365 24.2038C118.263 24.7235 119.278 25.0897 120.412 25.3023ZM90.1634 22.2257L92.3592 24.4215C92.6448 24.8132 92.7789 25.1858 92.7922 25.5431C92.8053 25.8966 92.7018 26.2714 92.452 26.6743C92.1263 26.9926 91.7964 27.1676 91.4623 27.2292C91.1319 27.2901 90.7631 27.2466 90.3454 27.071C89.4709 26.2937 88.626 25.4808 87.8107 24.6322L87.787 24.6076L87.7595 24.5874C87.2343 24.2025 86.6448 24.1347 86.0451 24.3894L86.023 24.3987L86.0022 24.4107C83.1381 26.0627 80.116 26.4581 76.9122 25.5992C73.5116 24.5357 71.075 22.395 69.5809 19.1581C68.0492 15.2813 68.3939 11.6068 70.618 8.09369C72.688 5.19623 75.4841 3.53902 79.0311 3.10854C81.47 2.99673 83.601 3.42661 85.4371 4.38348C87.2736 5.34061 88.837 6.83643 90.123 8.88964C91.5841 11.5763 91.9608 14.4004 91.2552 17.381C90.981 18.466 90.554 19.4839 89.9737 20.4359L89.9588 20.4604L89.9475 20.4869C89.6929 21.0866 89.7606 21.6762 90.1456 22.2014L90.1634 22.2257ZM79.23 6.45938L79.2095 6.46061L79.1894 6.46395C77.4846 6.74621 76.0455 7.37167 74.8891 8.35256C73.7328 9.33341 72.8792 10.6526 72.3189 12.2915L72.3147 12.3036L72.3113 12.3161C71.7393 14.4321 71.9541 16.4735 72.954 18.4205L72.9596 18.4314L72.9659 18.442C73.8604 19.9452 74.9829 21.0614 76.339 21.7687C77.6948 22.4759 79.259 22.7612 81.0166 22.6423L81.0342 22.6411L81.0517 22.6383C82.7627 22.3668 84.2056 21.7489 85.3628 20.7718C86.5201 19.7947 87.371 18.4758 87.9253 16.8346L87.9292 16.823L87.9324 16.8113C88.5044 14.6951 88.2897 12.6537 87.2897 10.7069L87.284 10.6957L87.2775 10.6849C86.3824 9.18585 85.2599 8.07004 83.9047 7.35869C82.5498 6.64746 80.9866 6.35337 79.23 6.45938Z" fill="url(#paint0_linear_405_2506)"/>
<path id="Union_2" opacity="0.98" fill-rule="evenodd" clip-rule="evenodd" d="M81.1845 7.74866L81.3067 8.00379C81.3877 8.25551 81.4017 8.51798 81.3486 8.79121C81.3204 8.83223 81.2809 8.86159 81.2302 8.87928C80.8261 9.0425 80.4366 9.05646 80.0617 8.92118C80.0112 8.82518 79.9631 8.72798 79.9176 8.62956C80.0711 8.55953 80.2214 8.48366 80.3684 8.40196C80.424 8.32707 80.412 8.27008 80.3325 8.23101L80.286 8.22975C80.1301 8.29308 79.9768 8.36257 79.826 8.43821C79.7769 8.33886 79.7303 8.23834 79.6862 8.13665C79.794 7.84552 79.979 7.59622 80.2413 7.38874C80.3395 7.31389 80.447 7.25723 80.5638 7.21872C80.6076 7.22744 80.6475 7.24363 80.6834 7.2673C80.8895 7.39509 81.0566 7.55554 81.1845 7.74866ZM77.4838 9.83382L77.3616 9.57869C77.2806 9.32699 77.2666 9.06451 77.3197 8.79127C77.3479 8.75025 77.3874 8.72089 77.4381 8.7032C77.6554 8.60747 77.8784 8.56212 78.1072 8.56715C78.2789 8.57571 78.4443 8.60497 78.6035 8.65493C78.6551 8.75304 78.7042 8.85237 78.7507 8.95292C78.5972 9.02295 78.447 9.09882 78.2999 9.18052C78.2477 9.24027 78.2499 9.29279 78.3065 9.33808C78.3287 9.35073 78.354 9.35562 78.3823 9.35273C78.5382 9.2894 78.6915 9.21991 78.8423 9.14427C78.8914 9.24362 78.938 9.34414 78.9821 9.44583C78.8743 9.73696 78.6893 9.98626 78.427 10.1937C78.3288 10.2686 78.2213 10.3253 78.1045 10.3638C78.0607 10.355 78.0208 10.3389 77.9849 10.3152C77.7788 10.1874 77.6117 10.0269 77.4838 9.83382ZM79.2961 9.56217L79.3181 9.50274L79.8918 9.21591L79.9481 9.23623C80.406 9.40145 80.8786 9.381 81.3493 9.19239C81.43 9.16286 81.5041 9.11672 81.5655 9.05328C81.9624 9.29289 82.2803 9.6775 82.519 10.2071C82.6226 10.5018 82.6757 10.807 82.6784 11.1227H78.2996C78.3052 10.9488 78.3228 10.7833 78.3522 10.6262C78.4505 10.5817 78.5433 10.5263 78.63 10.4601L78.6347 10.4564C78.9413 10.2139 79.1654 9.91535 79.2961 9.56217ZM78.8299 8.56225L79.472 8.25486L79.8384 9.02026L79.1963 9.32764L78.8299 8.56225ZM85.8234 15.5664V15.2688C85.7616 15.1146 85.6554 15.0116 85.5046 14.9598C84.959 14.9483 84.4135 14.9445 83.8679 14.9483C83.8643 14.2386 83.8679 13.529 83.8785 12.8194C84.2971 12.3762 84.7081 11.9261 85.1113 11.4689C85.239 11.1797 85.1788 10.947 84.9307 10.7707C84.7557 10.7076 84.5927 10.7305 84.4418 10.8394L83.2514 12.1213C81.3384 12.1365 79.4254 12.1365 77.5123 12.1213L76.322 10.8394C76.1532 10.7218 75.9761 10.7066 75.7906 10.7936C75.5403 11.0245 75.5155 11.2801 75.7162 11.5604L76.8853 12.8194C76.8959 13.529 76.8994 14.2386 76.8959 14.9483C76.3503 14.9445 75.8047 14.9483 75.2592 14.9598C75.1084 15.0116 75.0022 15.1146 74.9404 15.2688V15.5664C75.0077 15.7405 75.1281 15.8512 75.3017 15.8983C75.8331 15.9097 76.3645 15.9136 76.8959 15.9097C76.8754 16.6041 77.0029 17.2641 77.2785 17.8898C76.7998 18.4595 76.3287 19.0356 75.865 19.6181C75.8141 19.7503 75.7999 19.8877 75.8225 20.0301C75.9741 20.3613 76.2044 20.4414 76.5133 20.2705C76.9569 19.7546 77.3927 19.232 77.8205 18.7024C78.4238 19.2961 79.1359 19.6165 79.9568 19.6639V13.0941H80.807V19.6639C80.9705 19.6511 81.1335 19.632 81.2959 19.6066C81.8788 19.4644 82.4032 19.1935 82.8688 18.794C83.3326 19.282 83.7932 19.7742 84.2505 20.2705C84.3763 20.3467 84.5109 20.3696 84.6543 20.3392C84.9498 20.1801 85.0313 19.9398 84.8988 19.6181C84.414 19.0732 83.9216 18.5352 83.4215 18.0043C83.5009 17.8626 83.5682 17.7138 83.6234 17.5579C83.7989 17.0248 83.8804 16.4754 83.8679 15.9097C84.3993 15.9136 84.9307 15.9097 85.4621 15.8983C85.6357 15.8512 85.7561 15.7405 85.8234 15.5664Z" fill="#938F99"/>
</g>
<defs>
<linearGradient id="paint0_linear_405_2506" x1="23.953" y1="16.7343" x2="115.828" y2="16.7343" gradientUnits="userSpaceOnUse">
<stop stop-color="#FF6565"/>
<stop offset="0.0885417" stop-color="#FF7A7A"/>
<stop offset="0.541667" stop-color="#FCC573"/>
<stop offset="1" stop-color="#88B75A"/>
</linearGradient>
</defs>
</svg>
