<svg width="47" height="25" viewBox="0 0 47 25" fill="none" xmlns="http://www.w3.org/2000/svg">
<path id="Union" fill-rule="evenodd" clip-rule="evenodd" d="M1.93067 25C1.38579 25 0.943069 24.8729 0.602516 24.6186C0.284667 24.3643 0.0916873 24.0291 0.0235767 23.613C-0.0445338 23.1738 0.0349285 22.6884 0.261964 22.1567L9.25256 1.8724C9.5477 1.20204 9.8996 0.728156 10.3083 0.450763C10.7396 0.150254 11.2278 0 11.7726 0C12.2948 0 12.7602 0.150254 13.1689 0.450763C13.6003 0.728156 13.9635 1.20204 14.2587 1.8724L23.2833 22.1567C23.5331 22.6884 23.6239 23.1738 23.5558 23.613C23.4877 24.0522 23.2947 24.399 22.9768 24.6533C22.659 24.8844 22.239 25 21.7168 25C21.0811 25 20.5816 24.8497 20.2184 24.5492C19.8778 24.2256 19.5713 23.7402 19.2989 23.0929L17.0853 17.8571H17.0279L16.0977 15.3316C16.0977 15.3316 16.0692 15.32 16.0153 15.2992L11.7726 5.09709H11.7045L7.49141 15.3004C7.48259 15.3107 7.47383 15.3211 7.46514 15.3316C6.93444 15.9713 6.61486 16.9761 6.42542 17.8571H6.39191L4.21237 23.0929C3.91723 23.7633 3.61073 24.2487 3.29288 24.5492C2.97503 24.8497 2.52096 25 1.93067 25ZM33.2146 24.5423C33.63 24.8192 34.1492 24.9577 34.7723 24.9577C35.4185 24.9577 35.9261 24.8192 36.2954 24.5423C36.6877 24.2423 37.0108 23.8039 37.2646 23.2269L46.2992 2.94231C46.5531 2.36539 46.6338 1.85769 46.5415 1.41923C46.4492 0.98077 46.23 0.634616 45.8838 0.380771C45.5608 0.126924 45.1454 0 44.6377 0C44.0146 0 43.53 0.15 43.1838 0.45C42.8377 0.726924 42.5377 1.14231 42.2838 1.69615L34.8566 19.0054L27.3992 1.73077C27.1685 1.15385 26.88 0.726924 26.5338 0.45C26.2108 0.15 25.7146 0 25.0454 0C24.5377 0 24.0992 0.126924 23.73 0.380771C23.3608 0.634616 23.1185 0.98077 23.0031 1.41923C22.8877 1.85769 22.9569 2.36539 23.2108 2.94231L32.2454 23.2269C32.4992 23.8039 32.8223 24.2423 33.2146 24.5423Z" fill="url(#paint0_linear_421_14466)"/>
<defs>
<linearGradient id="paint0_linear_421_14466" x1="8.51391" y1="13.0737" x2="41.17" y2="13.0737" gradientUnits="userSpaceOnUse">
<stop stop-color="#FF6565"/>
<stop offset="0.0885417" stop-color="#FF7A7A"/>
<stop offset="0.541667" stop-color="#FCC573"/>
<stop offset="1" stop-color="#88B75A"/>
</linearGradient>
</defs>
</svg>
